<mxfile host="app.diagrams.net" modified="2023-04-30T03:24:24.016Z" agent="Mozilla/5.0 (Windows NT 10.0; Win64; x64) AppleWebKit/537.36 (KHTML, like Gecko) Chrome/112.0.0.0 Safari/537.36" etag="G5SeYw9-vDJWcd4u1kNf" version="21.2.3" type="device">
  <diagram id="C5RBs43oDa-KdzZeNtuy" name="Page-1">
    <mxGraphModel dx="1838" dy="985" grid="1" gridSize="10" guides="1" tooltips="1" connect="1" arrows="1" fold="1" page="1" pageScale="1" pageWidth="1654" pageHeight="1169" math="0" shadow="0">
      <root>
        <mxCell id="WIyWlLk6GJQsqaUBKTNV-0" />
        <mxCell id="WIyWlLk6GJQsqaUBKTNV-1" parent="WIyWlLk6GJQsqaUBKTNV-0" />
        <mxCell id="nsUf4VqyTRn2VOXlgb3n-72" value="" style="edgeStyle=orthogonalEdgeStyle;shape=connector;rounded=0;jumpStyle=gap;jumpSize=100;orthogonalLoop=1;jettySize=auto;html=1;labelBackgroundColor=default;strokeColor=default;fontFamily=Helvetica;fontSize=11;fontColor=default;endArrow=classic;" edge="1" parent="WIyWlLk6GJQsqaUBKTNV-1" source="WIyWlLk6GJQsqaUBKTNV-6" target="nsUf4VqyTRn2VOXlgb3n-1">
          <mxGeometry relative="1" as="geometry" />
        </mxCell>
        <mxCell id="nsUf4VqyTRn2VOXlgb3n-74" value="" style="edgeStyle=orthogonalEdgeStyle;shape=connector;rounded=0;jumpStyle=gap;jumpSize=100;orthogonalLoop=1;jettySize=auto;html=1;labelBackgroundColor=default;strokeColor=default;fontFamily=Helvetica;fontSize=11;fontColor=default;endArrow=classic;" edge="1" parent="WIyWlLk6GJQsqaUBKTNV-1" source="WIyWlLk6GJQsqaUBKTNV-6" target="WIyWlLk6GJQsqaUBKTNV-7">
          <mxGeometry relative="1" as="geometry" />
        </mxCell>
        <mxCell id="WIyWlLk6GJQsqaUBKTNV-6" value="Does cache_db exist?" style="rhombus;whiteSpace=wrap;html=1;shadow=0;fontFamily=Helvetica;fontSize=12;align=center;strokeWidth=1;spacing=6;spacingTop=-4;" parent="WIyWlLk6GJQsqaUBKTNV-1" vertex="1">
          <mxGeometry x="177" y="170" width="120" height="110" as="geometry" />
        </mxCell>
        <mxCell id="nsUf4VqyTRn2VOXlgb3n-7" style="edgeStyle=orthogonalEdgeStyle;rounded=0;orthogonalLoop=1;jettySize=auto;html=1;exitX=0.5;exitY=1;exitDx=0;exitDy=0;entryX=1;entryY=0.5;entryDx=0;entryDy=0;" edge="1" parent="WIyWlLk6GJQsqaUBKTNV-1" source="WIyWlLk6GJQsqaUBKTNV-7" target="nsUf4VqyTRn2VOXlgb3n-5">
          <mxGeometry relative="1" as="geometry" />
        </mxCell>
        <mxCell id="nsUf4VqyTRn2VOXlgb3n-61" style="edgeStyle=orthogonalEdgeStyle;rounded=0;orthogonalLoop=1;jettySize=auto;html=1;exitX=0.5;exitY=0;exitDx=0;exitDy=0;entryX=0.5;entryY=0;entryDx=0;entryDy=0;entryPerimeter=0;dashed=1;" edge="1" parent="WIyWlLk6GJQsqaUBKTNV-1" source="WIyWlLk6GJQsqaUBKTNV-7" target="nsUf4VqyTRn2VOXlgb3n-59">
          <mxGeometry relative="1" as="geometry">
            <Array as="points">
              <mxPoint x="437" y="20" />
              <mxPoint x="60" y="20" />
            </Array>
          </mxGeometry>
        </mxCell>
        <mxCell id="WIyWlLk6GJQsqaUBKTNV-7" value="Create empty cache_db" style="rounded=1;whiteSpace=wrap;html=1;fontSize=12;glass=0;strokeWidth=1;shadow=0;" parent="WIyWlLk6GJQsqaUBKTNV-1" vertex="1">
          <mxGeometry x="377" y="205" width="120" height="40" as="geometry" />
        </mxCell>
        <mxCell id="nsUf4VqyTRn2VOXlgb3n-73" value="" style="edgeStyle=orthogonalEdgeStyle;shape=connector;rounded=0;jumpStyle=gap;jumpSize=100;orthogonalLoop=1;jettySize=auto;html=1;labelBackgroundColor=default;strokeColor=default;fontFamily=Helvetica;fontSize=11;fontColor=default;endArrow=classic;" edge="1" parent="WIyWlLk6GJQsqaUBKTNV-1" source="nsUf4VqyTRn2VOXlgb3n-0" target="WIyWlLk6GJQsqaUBKTNV-6">
          <mxGeometry relative="1" as="geometry" />
        </mxCell>
        <mxCell id="nsUf4VqyTRn2VOXlgb3n-0" value="Start" style="ellipse;whiteSpace=wrap;html=1;aspect=fixed;" vertex="1" parent="WIyWlLk6GJQsqaUBKTNV-1">
          <mxGeometry x="197" y="40" width="80" height="80" as="geometry" />
        </mxCell>
        <mxCell id="nsUf4VqyTRn2VOXlgb3n-3" style="edgeStyle=orthogonalEdgeStyle;rounded=0;orthogonalLoop=1;jettySize=auto;html=1;exitX=0.5;exitY=1;exitDx=0;exitDy=0;entryX=0.5;entryY=0;entryDx=0;entryDy=0;" edge="1" parent="WIyWlLk6GJQsqaUBKTNV-1" source="nsUf4VqyTRn2VOXlgb3n-1" target="nsUf4VqyTRn2VOXlgb3n-2">
          <mxGeometry relative="1" as="geometry" />
        </mxCell>
        <mxCell id="nsUf4VqyTRn2VOXlgb3n-1" value="Read cache_db" style="rounded=1;whiteSpace=wrap;html=1;" vertex="1" parent="WIyWlLk6GJQsqaUBKTNV-1">
          <mxGeometry x="177" y="320" width="120" height="60" as="geometry" />
        </mxCell>
        <mxCell id="nsUf4VqyTRn2VOXlgb3n-6" value="" style="edgeStyle=orthogonalEdgeStyle;rounded=0;orthogonalLoop=1;jettySize=auto;html=1;" edge="1" parent="WIyWlLk6GJQsqaUBKTNV-1" source="nsUf4VqyTRn2VOXlgb3n-2" target="nsUf4VqyTRn2VOXlgb3n-5">
          <mxGeometry relative="1" as="geometry" />
        </mxCell>
        <mxCell id="nsUf4VqyTRn2VOXlgb3n-2" value="Verify cache_db" style="rounded=1;whiteSpace=wrap;html=1;" vertex="1" parent="WIyWlLk6GJQsqaUBKTNV-1">
          <mxGeometry x="177" y="420" width="120" height="60" as="geometry" />
        </mxCell>
        <mxCell id="nsUf4VqyTRn2VOXlgb3n-9" value="" style="edgeStyle=orthogonalEdgeStyle;rounded=0;orthogonalLoop=1;jettySize=auto;html=1;" edge="1" parent="WIyWlLk6GJQsqaUBKTNV-1" source="nsUf4VqyTRn2VOXlgb3n-4" target="nsUf4VqyTRn2VOXlgb3n-8">
          <mxGeometry relative="1" as="geometry" />
        </mxCell>
        <mxCell id="nsUf4VqyTRn2VOXlgb3n-4" value="Actor" style="shape=umlActor;verticalLabelPosition=bottom;verticalAlign=top;html=1;outlineConnect=0;" vertex="1" parent="WIyWlLk6GJQsqaUBKTNV-1">
          <mxGeometry x="20" y="840" width="30" height="60" as="geometry" />
        </mxCell>
        <mxCell id="nsUf4VqyTRn2VOXlgb3n-5" value="End" style="ellipse;whiteSpace=wrap;html=1;aspect=fixed;" vertex="1" parent="WIyWlLk6GJQsqaUBKTNV-1">
          <mxGeometry x="197" y="520" width="80" height="80" as="geometry" />
        </mxCell>
        <mxCell id="nsUf4VqyTRn2VOXlgb3n-11" style="edgeStyle=orthogonalEdgeStyle;rounded=0;orthogonalLoop=1;jettySize=auto;html=1;exitX=1;exitY=0.5;exitDx=0;exitDy=0;entryX=0;entryY=0.5;entryDx=0;entryDy=0;" edge="1" parent="WIyWlLk6GJQsqaUBKTNV-1" source="nsUf4VqyTRn2VOXlgb3n-8" target="nsUf4VqyTRn2VOXlgb3n-10">
          <mxGeometry relative="1" as="geometry" />
        </mxCell>
        <mxCell id="nsUf4VqyTRn2VOXlgb3n-8" value="Trigger task on file" style="rounded=1;whiteSpace=wrap;html=1;" vertex="1" parent="WIyWlLk6GJQsqaUBKTNV-1">
          <mxGeometry x="130" y="840" width="120" height="60" as="geometry" />
        </mxCell>
        <mxCell id="nsUf4VqyTRn2VOXlgb3n-18" value="" style="edgeStyle=orthogonalEdgeStyle;rounded=0;orthogonalLoop=1;jettySize=auto;html=1;" edge="1" parent="WIyWlLk6GJQsqaUBKTNV-1" source="nsUf4VqyTRn2VOXlgb3n-10" target="nsUf4VqyTRn2VOXlgb3n-17">
          <mxGeometry relative="1" as="geometry" />
        </mxCell>
        <mxCell id="nsUf4VqyTRn2VOXlgb3n-69" style="edgeStyle=orthogonalEdgeStyle;rounded=0;orthogonalLoop=1;jettySize=auto;html=1;exitX=0.5;exitY=1;exitDx=0;exitDy=0;entryX=0.75;entryY=1;entryDx=0;entryDy=0;jumpStyle=gap;jumpSize=100;" edge="1" parent="WIyWlLk6GJQsqaUBKTNV-1" source="nsUf4VqyTRn2VOXlgb3n-10" target="nsUf4VqyTRn2VOXlgb3n-24">
          <mxGeometry relative="1" as="geometry">
            <Array as="points">
              <mxPoint x="380" y="1130" />
              <mxPoint x="960" y="1130" />
            </Array>
          </mxGeometry>
        </mxCell>
        <mxCell id="nsUf4VqyTRn2VOXlgb3n-10" value="Does file exist in db?" style="rhombus;whiteSpace=wrap;html=1;" vertex="1" parent="WIyWlLk6GJQsqaUBKTNV-1">
          <mxGeometry x="320" y="820" width="120" height="100" as="geometry" />
        </mxCell>
        <mxCell id="nsUf4VqyTRn2VOXlgb3n-13" style="edgeStyle=orthogonalEdgeStyle;rounded=0;orthogonalLoop=1;jettySize=auto;html=1;exitX=0.5;exitY=1;exitDx=0;exitDy=0;exitPerimeter=0;dashed=1;" edge="1" parent="WIyWlLk6GJQsqaUBKTNV-1" source="nsUf4VqyTRn2VOXlgb3n-12" target="nsUf4VqyTRn2VOXlgb3n-10">
          <mxGeometry relative="1" as="geometry" />
        </mxCell>
        <mxCell id="nsUf4VqyTRn2VOXlgb3n-51" style="edgeStyle=orthogonalEdgeStyle;rounded=0;orthogonalLoop=1;jettySize=auto;html=1;exitX=1;exitY=0.5;exitDx=0;exitDy=0;exitPerimeter=0;dashed=1;" edge="1" parent="WIyWlLk6GJQsqaUBKTNV-1" source="nsUf4VqyTRn2VOXlgb3n-12" target="nsUf4VqyTRn2VOXlgb3n-17">
          <mxGeometry relative="1" as="geometry" />
        </mxCell>
        <mxCell id="nsUf4VqyTRn2VOXlgb3n-12" value="cache_db" style="strokeWidth=2;html=1;shape=mxgraph.flowchart.database;whiteSpace=wrap;" vertex="1" parent="WIyWlLk6GJQsqaUBKTNV-1">
          <mxGeometry x="350" y="720" width="60" height="60" as="geometry" />
        </mxCell>
        <mxCell id="nsUf4VqyTRn2VOXlgb3n-20" value="" style="edgeStyle=orthogonalEdgeStyle;rounded=0;orthogonalLoop=1;jettySize=auto;html=1;" edge="1" parent="WIyWlLk6GJQsqaUBKTNV-1" source="nsUf4VqyTRn2VOXlgb3n-17" target="nsUf4VqyTRn2VOXlgb3n-19">
          <mxGeometry relative="1" as="geometry" />
        </mxCell>
        <mxCell id="nsUf4VqyTRn2VOXlgb3n-17" value="Get task name in db" style="rounded=1;whiteSpace=wrap;html=1;" vertex="1" parent="WIyWlLk6GJQsqaUBKTNV-1">
          <mxGeometry x="510" y="840" width="120" height="60" as="geometry" />
        </mxCell>
        <mxCell id="nsUf4VqyTRn2VOXlgb3n-25" value="" style="edgeStyle=orthogonalEdgeStyle;rounded=0;orthogonalLoop=1;jettySize=auto;html=1;" edge="1" parent="WIyWlLk6GJQsqaUBKTNV-1" source="nsUf4VqyTRn2VOXlgb3n-19" target="nsUf4VqyTRn2VOXlgb3n-24">
          <mxGeometry relative="1" as="geometry" />
        </mxCell>
        <mxCell id="nsUf4VqyTRn2VOXlgb3n-42" value="" style="edgeStyle=orthogonalEdgeStyle;rounded=0;orthogonalLoop=1;jettySize=auto;html=1;" edge="1" parent="WIyWlLk6GJQsqaUBKTNV-1" source="nsUf4VqyTRn2VOXlgb3n-19" target="nsUf4VqyTRn2VOXlgb3n-41">
          <mxGeometry relative="1" as="geometry" />
        </mxCell>
        <mxCell id="nsUf4VqyTRn2VOXlgb3n-19" value="Does task exist?" style="rhombus;whiteSpace=wrap;html=1;" vertex="1" parent="WIyWlLk6GJQsqaUBKTNV-1">
          <mxGeometry x="690" y="820" width="120" height="100" as="geometry" />
        </mxCell>
        <mxCell id="nsUf4VqyTRn2VOXlgb3n-22" value="" style="edgeStyle=orthogonalEdgeStyle;rounded=0;orthogonalLoop=1;jettySize=auto;html=1;dashed=1;" edge="1" parent="WIyWlLk6GJQsqaUBKTNV-1" source="nsUf4VqyTRn2VOXlgb3n-21" target="nsUf4VqyTRn2VOXlgb3n-19">
          <mxGeometry relative="1" as="geometry" />
        </mxCell>
        <mxCell id="nsUf4VqyTRn2VOXlgb3n-21" value="tasks.json" style="strokeWidth=2;html=1;shape=mxgraph.flowchart.database;whiteSpace=wrap;" vertex="1" parent="WIyWlLk6GJQsqaUBKTNV-1">
          <mxGeometry x="720" y="720" width="60" height="60" as="geometry" />
        </mxCell>
        <mxCell id="nsUf4VqyTRn2VOXlgb3n-23" value="Yes" style="text;html=1;align=center;verticalAlign=middle;resizable=0;points=[];autosize=1;strokeColor=none;fillColor=none;" vertex="1" parent="WIyWlLk6GJQsqaUBKTNV-1">
          <mxGeometry x="450" y="838" width="40" height="30" as="geometry" />
        </mxCell>
        <mxCell id="nsUf4VqyTRn2VOXlgb3n-29" value="" style="edgeStyle=orthogonalEdgeStyle;rounded=0;orthogonalLoop=1;jettySize=auto;html=1;" edge="1" parent="WIyWlLk6GJQsqaUBKTNV-1" source="nsUf4VqyTRn2VOXlgb3n-24" target="nsUf4VqyTRn2VOXlgb3n-28">
          <mxGeometry relative="1" as="geometry" />
        </mxCell>
        <mxCell id="nsUf4VqyTRn2VOXlgb3n-24" value="Run all tasks" style="rounded=1;whiteSpace=wrap;html=1;" vertex="1" parent="WIyWlLk6GJQsqaUBKTNV-1">
          <mxGeometry x="870" y="840" width="120" height="60" as="geometry" />
        </mxCell>
        <mxCell id="nsUf4VqyTRn2VOXlgb3n-26" value="No" style="text;html=1;align=center;verticalAlign=middle;resizable=0;points=[];autosize=1;strokeColor=none;fillColor=none;" vertex="1" parent="WIyWlLk6GJQsqaUBKTNV-1">
          <mxGeometry x="810" y="840" width="40" height="30" as="geometry" />
        </mxCell>
        <mxCell id="nsUf4VqyTRn2VOXlgb3n-35" value="" style="edgeStyle=orthogonalEdgeStyle;rounded=0;orthogonalLoop=1;jettySize=auto;html=1;" edge="1" parent="WIyWlLk6GJQsqaUBKTNV-1" source="nsUf4VqyTRn2VOXlgb3n-28" target="nsUf4VqyTRn2VOXlgb3n-30">
          <mxGeometry relative="1" as="geometry" />
        </mxCell>
        <mxCell id="nsUf4VqyTRn2VOXlgb3n-46" style="edgeStyle=orthogonalEdgeStyle;rounded=0;orthogonalLoop=1;jettySize=auto;html=1;exitX=0.5;exitY=0;exitDx=0;exitDy=0;entryX=0.5;entryY=0;entryDx=0;entryDy=0;" edge="1" parent="WIyWlLk6GJQsqaUBKTNV-1" source="nsUf4VqyTRn2VOXlgb3n-28" target="nsUf4VqyTRn2VOXlgb3n-37">
          <mxGeometry relative="1" as="geometry" />
        </mxCell>
        <mxCell id="nsUf4VqyTRn2VOXlgb3n-28" value="Success?" style="rhombus;whiteSpace=wrap;html=1;" vertex="1" parent="WIyWlLk6GJQsqaUBKTNV-1">
          <mxGeometry x="1050" y="820" width="120" height="100" as="geometry" />
        </mxCell>
        <mxCell id="nsUf4VqyTRn2VOXlgb3n-33" style="edgeStyle=orthogonalEdgeStyle;rounded=0;orthogonalLoop=1;jettySize=auto;html=1;exitX=0.5;exitY=0;exitDx=0;exitDy=0;entryX=0.5;entryY=0;entryDx=0;entryDy=0;entryPerimeter=0;dashed=1;" edge="1" parent="WIyWlLk6GJQsqaUBKTNV-1" source="nsUf4VqyTRn2VOXlgb3n-30" target="nsUf4VqyTRn2VOXlgb3n-12">
          <mxGeometry relative="1" as="geometry" />
        </mxCell>
        <mxCell id="nsUf4VqyTRn2VOXlgb3n-38" value="" style="edgeStyle=orthogonalEdgeStyle;rounded=0;orthogonalLoop=1;jettySize=auto;html=1;" edge="1" parent="WIyWlLk6GJQsqaUBKTNV-1" source="nsUf4VqyTRn2VOXlgb3n-30" target="nsUf4VqyTRn2VOXlgb3n-37">
          <mxGeometry relative="1" as="geometry" />
        </mxCell>
        <mxCell id="nsUf4VqyTRn2VOXlgb3n-30" value="Update to db" style="rounded=1;whiteSpace=wrap;html=1;" vertex="1" parent="WIyWlLk6GJQsqaUBKTNV-1">
          <mxGeometry x="1220" y="840" width="120" height="60" as="geometry" />
        </mxCell>
        <mxCell id="nsUf4VqyTRn2VOXlgb3n-36" value="Yes" style="text;html=1;align=center;verticalAlign=middle;resizable=0;points=[];autosize=1;strokeColor=none;fillColor=none;" vertex="1" parent="WIyWlLk6GJQsqaUBKTNV-1">
          <mxGeometry x="1170" y="848" width="40" height="30" as="geometry" />
        </mxCell>
        <mxCell id="nsUf4VqyTRn2VOXlgb3n-37" value="End" style="ellipse;whiteSpace=wrap;html=1;aspect=fixed;" vertex="1" parent="WIyWlLk6GJQsqaUBKTNV-1">
          <mxGeometry x="1400" y="830" width="80" height="80" as="geometry" />
        </mxCell>
        <mxCell id="nsUf4VqyTRn2VOXlgb3n-64" value="" style="edgeStyle=orthogonalEdgeStyle;rounded=0;orthogonalLoop=1;jettySize=auto;html=1;" edge="1" parent="WIyWlLk6GJQsqaUBKTNV-1" source="nsUf4VqyTRn2VOXlgb3n-41" target="nsUf4VqyTRn2VOXlgb3n-63">
          <mxGeometry relative="1" as="geometry" />
        </mxCell>
        <mxCell id="nsUf4VqyTRn2VOXlgb3n-41" value="Run that task" style="rounded=1;whiteSpace=wrap;html=1;" vertex="1" parent="WIyWlLk6GJQsqaUBKTNV-1">
          <mxGeometry x="690" y="950" width="120" height="60" as="geometry" />
        </mxCell>
        <mxCell id="nsUf4VqyTRn2VOXlgb3n-43" value="Yes" style="text;html=1;align=center;verticalAlign=middle;resizable=0;points=[];autosize=1;strokeColor=none;fillColor=none;" vertex="1" parent="WIyWlLk6GJQsqaUBKTNV-1">
          <mxGeometry x="750" y="920" width="40" height="30" as="geometry" />
        </mxCell>
        <mxCell id="nsUf4VqyTRn2VOXlgb3n-47" value="No" style="text;html=1;align=center;verticalAlign=middle;resizable=0;points=[];autosize=1;strokeColor=none;fillColor=none;" vertex="1" parent="WIyWlLk6GJQsqaUBKTNV-1">
          <mxGeometry x="1130" y="778" width="40" height="30" as="geometry" />
        </mxCell>
        <mxCell id="nsUf4VqyTRn2VOXlgb3n-49" value="No" style="text;html=1;align=center;verticalAlign=middle;resizable=0;points=[];autosize=1;strokeColor=none;fillColor=none;" vertex="1" parent="WIyWlLk6GJQsqaUBKTNV-1">
          <mxGeometry x="370" y="928" width="40" height="30" as="geometry" />
        </mxCell>
        <mxCell id="nsUf4VqyTRn2VOXlgb3n-58" value="" style="edgeStyle=orthogonalEdgeStyle;rounded=0;orthogonalLoop=1;jettySize=auto;html=1;dashed=1;" edge="1" parent="WIyWlLk6GJQsqaUBKTNV-1" source="nsUf4VqyTRn2VOXlgb3n-57" target="nsUf4VqyTRn2VOXlgb3n-2">
          <mxGeometry relative="1" as="geometry" />
        </mxCell>
        <mxCell id="nsUf4VqyTRn2VOXlgb3n-57" value="tasks.json" style="strokeWidth=2;html=1;shape=mxgraph.flowchart.database;whiteSpace=wrap;" vertex="1" parent="WIyWlLk6GJQsqaUBKTNV-1">
          <mxGeometry x="30" y="420" width="60" height="60" as="geometry" />
        </mxCell>
        <mxCell id="nsUf4VqyTRn2VOXlgb3n-60" value="" style="edgeStyle=orthogonalEdgeStyle;rounded=0;orthogonalLoop=1;jettySize=auto;html=1;dashed=1;" edge="1" parent="WIyWlLk6GJQsqaUBKTNV-1" source="nsUf4VqyTRn2VOXlgb3n-59" target="nsUf4VqyTRn2VOXlgb3n-1">
          <mxGeometry relative="1" as="geometry" />
        </mxCell>
        <mxCell id="nsUf4VqyTRn2VOXlgb3n-59" value="cache_db" style="strokeWidth=2;html=1;shape=mxgraph.flowchart.database;whiteSpace=wrap;" vertex="1" parent="WIyWlLk6GJQsqaUBKTNV-1">
          <mxGeometry x="30" y="320" width="60" height="60" as="geometry" />
        </mxCell>
        <mxCell id="nsUf4VqyTRn2VOXlgb3n-65" style="edgeStyle=orthogonalEdgeStyle;rounded=0;orthogonalLoop=1;jettySize=auto;html=1;exitX=1;exitY=0.5;exitDx=0;exitDy=0;" edge="1" parent="WIyWlLk6GJQsqaUBKTNV-1" source="nsUf4VqyTRn2VOXlgb3n-63" target="nsUf4VqyTRn2VOXlgb3n-24">
          <mxGeometry relative="1" as="geometry" />
        </mxCell>
        <mxCell id="nsUf4VqyTRn2VOXlgb3n-67" style="edgeStyle=orthogonalEdgeStyle;rounded=0;orthogonalLoop=1;jettySize=auto;html=1;exitX=0.5;exitY=1;exitDx=0;exitDy=0;entryX=0.5;entryY=1;entryDx=0;entryDy=0;" edge="1" parent="WIyWlLk6GJQsqaUBKTNV-1" source="nsUf4VqyTRn2VOXlgb3n-63" target="nsUf4VqyTRn2VOXlgb3n-30">
          <mxGeometry relative="1" as="geometry" />
        </mxCell>
        <mxCell id="nsUf4VqyTRn2VOXlgb3n-63" value="Success?" style="rhombus;whiteSpace=wrap;html=1;" vertex="1" parent="WIyWlLk6GJQsqaUBKTNV-1">
          <mxGeometry x="840" y="945" width="70" height="70" as="geometry" />
        </mxCell>
        <mxCell id="nsUf4VqyTRn2VOXlgb3n-66" value="No" style="text;html=1;align=center;verticalAlign=middle;resizable=0;points=[];autosize=1;strokeColor=none;fillColor=none;" vertex="1" parent="WIyWlLk6GJQsqaUBKTNV-1">
          <mxGeometry x="890" y="928" width="40" height="30" as="geometry" />
        </mxCell>
        <mxCell id="nsUf4VqyTRn2VOXlgb3n-68" value="Yes" style="text;html=1;align=center;verticalAlign=middle;resizable=0;points=[];autosize=1;strokeColor=none;fillColor=none;" vertex="1" parent="WIyWlLk6GJQsqaUBKTNV-1">
          <mxGeometry x="870" y="1008" width="40" height="30" as="geometry" />
        </mxCell>
      </root>
    </mxGraphModel>
  </diagram>
</mxfile>
